<svg width="20" height="17" viewBox="0 0 20 17" fill="none" xmlns="http://www.w3.org/2000/svg">
<path d="M9.75 5.5C9.55109 5.5 9.36032 5.57902 9.21967 5.71967C9.07902 5.86032 9 6.05109 9 6.25C9 6.44891 9.07902 6.63968 9.21967 6.78033C9.36032 6.92098 9.55109 7 9.75 7C11.072 7 12.462 7.759 13.16 8.756C13.2165 8.8367 13.2883 8.90548 13.3713 8.95843C13.4544 9.01137 13.547 9.04744 13.644 9.06457C13.741 9.08171 13.8404 9.07957 13.9366 9.05828C14.0328 9.03699 14.1238 8.99697 14.2045 8.9405C14.2852 8.88403 14.354 8.81222 14.4069 8.72917C14.4599 8.64612 14.4959 8.55345 14.5131 8.45646C14.5302 8.35947 14.5281 8.26005 14.5068 8.16389C14.4855 8.06773 14.4455 7.9767 14.389 7.896C13.413 6.502 11.567 5.5 9.75 5.5ZM7.5 2.5C7.5 1.83696 7.76339 1.20107 8.23223 0.732233C8.70107 0.263392 9.33696 0 10 0C10.663 0 11.2989 0.263392 11.7678 0.732233C12.2366 1.20107 12.5 1.83696 12.5 2.5V3.38C14.1705 3.91036 15.6285 4.95923 16.6624 6.37439C17.6964 7.78955 18.2525 9.49737 18.25 11.25C18.25 11.4489 18.171 11.6397 18.0303 11.7803C17.8897 11.921 17.6989 12 17.5 12H2.5C2.30109 12 2.11032 11.921 1.96967 11.7803C1.82902 11.6397 1.75 11.4489 1.75 11.25C1.75 7.571 4.172 4.457 7.5 3.392V2.5ZM11 2.5C11 2.23478 10.8946 1.98043 10.7071 1.79289C10.5196 1.60536 10.2652 1.5 10 1.5C9.73478 1.5 9.48043 1.60536 9.29289 1.79289C9.10536 1.98043 9 2.23478 9 2.5V3.063C9.66403 2.98072 10.3356 2.97905 11 3.058V2.5ZM3.292 10.5H16.709C16.339 7.124 13.493 4.5 10.021 4.5C6.546 4.5 3.668 7.128 3.292 10.5ZM2 13C1.46957 13 0.960859 13.2107 0.585786 13.5858C0.210714 13.9609 0 14.4696 0 15C0 15.5304 0.210714 16.0391 0.585786 16.4142C0.960859 16.7893 1.46957 17 2 17H18C18.5304 17 19.0391 16.7893 19.4142 16.4142C19.7893 16.0391 20 15.5304 20 15C20 14.4696 19.7893 13.9609 19.4142 13.5858C19.0391 13.2107 18.5304 13 18 13H2ZM1.5 15C1.5 14.8674 1.55268 14.7402 1.64645 14.6464C1.74021 14.5527 1.86739 14.5 2 14.5H18C18.1326 14.5 18.2598 14.5527 18.3536 14.6464C18.4473 14.7402 18.5 14.8674 18.5 15C18.5 15.1326 18.4473 15.2598 18.3536 15.3536C18.2598 15.4473 18.1326 15.5 18 15.5H2C1.86739 15.5 1.74021 15.4473 1.64645 15.3536C1.55268 15.2598 1.5 15.1326 1.5 15Z" fill="white"/>
</svg>
