<svg width="21" height="21" viewBox="0 0 21 21" fill="none" xmlns="http://www.w3.org/2000/svg">
<path d="M7.94867 0.146764C8.06067 0.185431 8.17034 0.230764 8.27767 0.282764L9.56067 0.914764C9.73241 0.999291 9.92126 1.04325 10.1127 1.04325C10.3041 1.04325 10.4929 0.999291 10.6647 0.914764L11.9477 0.282764C12.2717 0.123248 12.624 0.0291222 12.9844 0.0057626C13.3448 -0.017597 13.7063 0.030267 14.0482 0.146621C14.3901 0.262975 14.7058 0.44554 14.9771 0.683891C15.2485 0.922242 15.4702 1.21171 15.6297 1.53576L15.7027 1.69776L15.7657 1.86476L16.2257 3.21776C16.3507 3.58576 16.6397 3.87376 17.0067 3.99876L18.3607 4.45876C18.731 4.58477 19.0703 4.78836 19.3557 5.05592C19.6411 5.32348 19.8661 5.64886 20.0158 6.01033C20.1654 6.3718 20.2362 6.76103 20.2234 7.15205C20.2107 7.54306 20.1146 7.92684 19.9417 8.27776L19.3107 9.56076C19.2261 9.7325 19.1822 9.92135 19.1822 10.1128C19.1822 10.3042 19.2261 10.493 19.3107 10.6648L19.9417 11.9478C20.1144 12.2986 20.2103 12.6823 20.223 13.0732C20.2357 13.4641 20.1649 13.8532 20.0153 14.2146C19.8656 14.5759 19.6406 14.9012 19.3553 15.1687C19.07 15.4362 18.7309 15.6397 18.3607 15.7658L17.0067 16.2258C16.8255 16.2876 16.661 16.3901 16.5258 16.5255C16.3906 16.6609 16.2882 16.8256 16.2267 17.0068L15.7657 18.3608C15.6396 18.731 15.4361 19.0701 15.1686 19.3554C14.9011 19.6407 14.5758 19.8657 14.2145 20.0154C13.8531 20.165 13.464 20.2358 13.0731 20.2231C12.6822 20.2104 12.2986 20.1145 11.9477 19.9418L10.6647 19.3108C10.4929 19.2262 10.3041 19.1823 10.1127 19.1823C9.92126 19.1823 9.73241 19.2262 9.56067 19.3108L8.27767 19.9418C7.92679 20.1145 7.5431 20.2104 7.1522 20.2231C6.76131 20.2358 6.3722 20.165 6.01086 20.0154C5.64951 19.8657 5.32424 19.6407 5.05675 19.3554C4.78926 19.0701 4.5857 18.731 4.45967 18.3608L3.99967 17.0068C3.93778 16.8255 3.83508 16.6609 3.69949 16.5257C3.56391 16.3905 3.39906 16.2882 3.21767 16.2268L1.86467 15.7658C1.49435 15.6398 1.15514 15.4364 0.869713 15.1689C0.584281 14.9015 0.359186 14.5762 0.209457 14.2149C0.0597271 13.8535 -0.0111923 13.4644 0.00143301 13.0734C0.0140584 12.6825 0.109938 12.2987 0.282671 11.9478L0.914671 10.6648C0.999198 10.493 1.04316 10.3042 1.04316 10.1128C1.04316 9.92135 0.999198 9.7325 0.914671 9.56076L0.282671 8.27776C0.109938 7.92682 0.0140584 7.54307 0.00143301 7.15212C-0.0111923 6.76117 0.0597271 6.37203 0.209457 6.01067C0.359186 5.64932 0.584281 5.32406 0.869713 5.05661C1.15514 4.78917 1.49435 4.58569 1.86467 4.45976L3.21767 3.99976C3.39909 3.93801 3.56387 3.83536 3.69929 3.69977C3.83471 3.56417 3.93715 3.39926 3.99867 3.21776L4.45867 1.86476C4.57495 1.52276 4.75748 1.20701 4.99582 0.935559C5.23417 0.66411 5.52365 0.442279 5.84775 0.282738C6.17185 0.123197 6.5242 0.0290725 6.88468 0.00574174C7.24517 -0.017589 7.60671 0.030331 7.94867 0.146764ZM5.87867 2.34676L5.41867 3.70076C5.28302 4.09958 5.05756 4.46191 4.75969 4.75978C4.46182 5.05766 4.09949 5.28312 3.70067 5.41876L2.34767 5.87876C2.17928 5.936 2.02504 6.02851 1.89525 6.15012C1.76547 6.27173 1.66313 6.41964 1.59507 6.58395C1.52702 6.74827 1.49481 6.92523 1.5006 7.10299C1.5064 7.28075 1.55006 7.45522 1.62867 7.61476L2.26067 8.89776C2.44682 9.27574 2.54363 9.69144 2.54363 10.1128C2.54363 10.5341 2.44682 10.9498 2.26067 11.3278L1.62867 12.6098C1.55006 12.7693 1.5064 12.9438 1.5006 13.1215C1.49481 13.2993 1.52702 13.4763 1.59507 13.6406C1.66313 13.8049 1.76547 13.9528 1.89525 14.0744C2.02504 14.196 2.17928 14.2885 2.34767 14.3458L3.70067 14.8058C4.09949 14.9414 4.46182 15.1669 4.75969 15.4647C5.05756 15.7626 5.28302 16.1249 5.41867 16.5238L5.87867 17.8778C5.93563 18.0464 6.02799 18.2008 6.14955 18.3308C6.27111 18.4608 6.41905 18.5632 6.58347 18.6313C6.74788 18.6994 6.92495 18.7316 7.10281 18.7256C7.28066 18.7196 7.45519 18.6757 7.61467 18.5968L8.89767 17.9648C9.27565 17.7786 9.69134 17.6818 10.1127 17.6818C10.534 17.6818 10.9497 17.7786 11.3277 17.9648L12.6097 18.5968C12.659 18.6201 12.709 18.6404 12.7597 18.6578C13.0734 18.7646 13.4168 18.7424 13.7142 18.5961C14.0116 18.4499 14.2387 18.1915 14.3457 17.8778L14.8057 16.5238C14.9413 16.1249 15.1668 15.7626 15.4647 15.4647C15.7625 15.1669 16.1249 14.9414 16.5237 14.8058L17.8777 14.3458C17.9277 14.3284 17.9777 14.3078 18.0277 14.2838C18.175 14.2112 18.3065 14.1104 18.4148 13.987C18.5232 13.8636 18.6061 13.7201 18.6589 13.5646C18.7118 13.4092 18.7335 13.2448 18.7228 13.081C18.7121 12.9172 18.6693 12.757 18.5967 12.6098L17.9647 11.3268C17.7787 10.9489 17.682 10.5334 17.682 10.1123C17.682 9.69112 17.7787 9.27561 17.9647 8.89776L18.5967 7.61476C18.6753 7.45522 18.7189 7.28075 18.7247 7.10299C18.7305 6.92523 18.6983 6.74827 18.6303 6.58395C18.5622 6.41964 18.4599 6.27173 18.3301 6.15012C18.2003 6.02851 18.0461 5.936 17.8777 5.87876L16.5237 5.41876C16.1249 5.28312 15.7625 5.05766 15.4647 4.75978C15.1668 4.46191 14.9413 4.09958 14.8057 3.70076L14.3457 2.34776L14.3167 2.27176L14.2837 2.19776L14.2217 2.08676C14.0574 1.82435 13.8016 1.63224 13.5038 1.54763C13.206 1.46302 12.8874 1.49193 12.6097 1.62876L11.3267 2.26076C10.9488 2.44676 10.5333 2.54348 10.1122 2.54348C9.69103 2.54348 9.27552 2.44676 8.89767 2.26076L7.61467 1.62876C7.45518 1.55033 7.28079 1.5068 7.10314 1.5011C6.9255 1.4954 6.74868 1.52764 6.58448 1.59569C6.42029 1.66373 6.27249 1.76601 6.15095 1.8957C6.02941 2.02539 5.93693 2.1795 5.87967 2.34776M8.16267 12.5028L13.5827 7.08276C13.7165 6.94857 13.8962 6.87002 14.0855 6.8629C14.2749 6.85577 14.46 6.92061 14.6035 7.04438C14.747 7.16814 14.8384 7.34165 14.8592 7.53002C14.88 7.71839 14.8287 7.90766 14.7157 8.05976L14.6427 8.14376L8.64267 14.1438C8.50701 14.2794 8.32452 14.3579 8.13275 14.3631C7.94098 14.3683 7.7545 14.2998 7.61167 14.1718L7.53667 14.0938L5.03667 11.0938C4.91578 10.9483 4.85431 10.7626 4.86457 10.5737C4.87483 10.3849 4.95605 10.2069 5.09198 10.0753C5.22791 9.94384 5.40851 9.86855 5.59759 9.86455C5.78668 9.86055 5.9703 9.92813 6.11167 10.0538L6.18867 10.1338L8.16267 12.5028Z" fill="white"/>
</svg>
