<svg width="18" height="18" viewBox="0 0 18 18" fill="none" xmlns="http://www.w3.org/2000/svg">
<path d="M3.25 0C2.38805 0 1.5614 0.34241 0.951903 0.951903C0.34241 1.5614 0 2.38805 0 3.25V14.75C0 15.612 0.34241 16.4386 0.951903 17.0481C1.5614 17.6576 2.38805 18 3.25 18H14.75C15.612 18 16.4386 17.6576 17.0481 17.0481C17.6576 16.4386 18 15.612 18 14.75V3.25C18 2.38805 17.6576 1.5614 17.0481 0.951903C16.4386 0.34241 15.612 0 14.75 0H3.25ZM1.5 3.25C1.5 2.284 2.284 1.5 3.25 1.5H5V5H1.5V3.25ZM1.5 9H5V5H9V1.5H13V5H16.5V9H13V13H16.5V14.75C16.5 15.2141 16.3156 15.6592 15.9874 15.9874C15.6592 16.3156 15.2141 16.5 14.75 16.5H13V13H9V16.5H5V13H1.5V9ZM9 9V5H13V9H9ZM9 9H5V13H9V9Z" fill="white"/>
</svg>
