<svg width="8" height="9" viewBox="0 0 8 9" fill="none" xmlns="http://www.w3.org/2000/svg">
<path d="M7.89433 5.1335C7.95996 5.06098 7.99465 4.96568 7.99101 4.86794C7.98737 4.7702 7.94569 4.67775 7.87485 4.6103C7.80402 4.54286 7.70963 4.50576 7.61183 4.50692C7.51403 4.50807 7.42055 4.5474 7.35133 4.6165L4.37383 7.742L4.37383 0.375C4.37383 0.275544 4.33432 0.180161 4.264 0.109835C4.19367 0.0395086 4.09829 -1.70168e-07 3.99883 -1.74515e-07C3.89938 -1.78862e-07 3.80399 0.0395086 3.73367 0.109835C3.66334 0.180161 3.62383 0.275544 3.62383 0.375L3.62383 7.742L0.646831 4.6165C0.578273 4.54443 0.483892 4.50254 0.384451 4.50006C0.28501 4.49757 0.188654 4.53469 0.116582 4.60325C0.0445092 4.67181 0.00262287 4.76619 0.00013807 4.86563C-0.00234673 4.96507 0.0347727 5.06143 0.103331 5.1335L3.63683 8.8435C3.71399 8.92454 3.8161 8.97736 3.92683 8.9935C3.97479 9.00217 4.02393 9.002 4.07183 8.993C4.1822 8.97665 4.28393 8.92385 4.36083 8.843L7.89433 5.1335Z" fill="white"/>
</svg>
