<svg width="14" height="14" viewBox="0 0 14 14" fill="none" xmlns="http://www.w3.org/2000/svg">
<path d="M6.66667 0C3 0 0 2.99333 0 6.68C0 10.0133 2.44 12.78 5.62667 13.28V8.61333H3.93333V6.68H5.62667V5.20667C5.62667 3.53333 6.62 2.61333 8.14667 2.61333C8.87333 2.61333 9.63333 2.74 9.63333 2.74V4.38667H8.79333C7.96667 4.38667 7.70667 4.9 7.70667 5.42667V6.68H9.56L9.26 8.61333H7.70667V13.28C9.27763 13.0319 10.7081 12.2303 11.74 11.02C12.7718 9.80974 13.3369 8.27043 13.3333 6.68C13.3333 2.99333 10.3333 0 6.66667 0Z" fill="white"/>
</svg>
