<svg width="18" height="20" viewBox="0 0 18 20" fill="none" xmlns="http://www.w3.org/2000/svg">
<path d="M2.25 1.5C2.05109 1.5 1.86032 1.57902 1.71967 1.71967C1.57902 1.86032 1.5 2.05109 1.5 2.25V17.75C1.5 18.164 1.836 18.5 2.25 18.5H6.03C5.92697 19.0162 6.02346 19.5522 6.3 20H2.25C1.65326 20 1.08097 19.7629 0.65901 19.341C0.237053 18.919 0 18.3467 0 17.75V2.25C0 1.65326 0.237053 1.08097 0.65901 0.65901C1.08097 0.237053 1.65326 0 2.25 0H8.336C8.8 0 9.245 0.184 9.573 0.513L15.487 6.427C15.816 6.755 16 7.2 16 7.664V8H15.87C15.7594 7.99387 15.6486 7.99387 15.538 8H10C9.46957 8 8.96086 7.78929 8.58579 7.41421C8.21071 7.03914 8 6.53043 8 6V1.5H2.25ZM9.5 2.56V6C9.5 6.13261 9.55268 6.25979 9.64645 6.35355C9.74021 6.44732 9.86739 6.5 10 6.5H13.44L9.5 2.56ZM15.713 9H15.715C16.1669 9.00037 16.6086 9.13468 16.9842 9.38596C17.3598 9.63724 17.6525 9.99421 17.8253 10.4118C17.9982 10.8293 18.0433 11.2887 17.9552 11.732C17.867 12.1752 17.6495 12.5824 17.33 12.902L11.428 18.804C11.0836 19.1477 10.6528 19.392 10.181 19.511L8.35 19.968C8.16793 20.0135 7.97718 20.011 7.79633 19.9609C7.61548 19.9108 7.45068 19.8147 7.31798 19.682C7.18528 19.5493 7.0892 19.3845 7.03908 19.2037C6.98897 19.0228 6.98653 18.8321 7.032 18.65L7.489 16.82C7.607 16.347 7.851 15.916 8.196 15.572L14.098 9.67C14.3099 9.45755 14.5616 9.28901 14.8387 9.17404C15.1159 9.05906 15.413 8.99992 15.713 9Z" fill="#E9EF33"/>
</svg>
