<svg width="9" height="8" viewBox="0 0 9 8" fill="none" xmlns="http://www.w3.org/2000/svg">
<path d="M5.1335 0.0969405C5.06098 0.0313146 4.96568 -0.00337869 4.86794 0.000259827C4.7702 0.00389835 4.67775 0.0455808 4.6103 0.116417C4.54286 0.187253 4.50576 0.281637 4.50692 0.379439C4.50807 0.477241 4.5474 0.570721 4.6165 0.63994L7.742 3.61744L0.375 3.61744C0.275544 3.61744 0.180161 3.65695 0.109835 3.72728C0.0395088 3.7976 0 3.89298 0 3.99244C0 4.0919 0.0395088 4.18728 0.109835 4.25761C0.180161 4.32793 0.275544 4.36744 0.375 4.36744L7.742 4.36744L4.6165 7.34444C4.54443 7.413 4.50254 7.50738 4.50006 7.60682C4.49757 7.70626 4.53469 7.80262 4.60325 7.87469C4.67181 7.94676 4.76619 7.98865 4.86563 7.99113C4.96507 7.99362 5.06143 7.9565 5.1335 7.88794L8.8435 4.35444C8.92454 4.27728 8.97736 4.17517 8.9935 4.06444C9.00217 4.01648 9.002 3.96734 8.993 3.91944C8.97665 3.80907 8.92385 3.70734 8.843 3.63044L5.1335 0.0969405Z" fill="white"/>
</svg>
