<svg width="96" height="14" viewBox="0 0 96 14" fill="none" xmlns="http://www.w3.org/2000/svg">
<path d="M0 6.54806L2.61833 5.76211V0H0V6.54806Z" fill="white"/>
<path d="M2.61833 13.0961V7.334L0 6.54806V13.0961H2.61833Z" fill="white"/>
<path d="M3.92972 6.54806L6.54806 5.76211V0H3.92972V6.54806Z" fill="white"/>
<path d="M3.92972 13.0961H6.54806V7.334L3.92972 6.54806V13.0961Z" fill="white"/>
<path d="M7.85722 5.37025L10.4778 4.58431V0H7.85722V5.37025Z" fill="white"/>
<path d="M7.85722 13.0961H10.4778V8.51403L7.85722 7.72809V13.0961Z" fill="white"/>
<path d="M11.7869 6.54806L14.4075 5.76211V0H11.7869V6.54806Z" fill="white"/>
<path d="M11.7869 13.0961H14.4075V7.334L11.7869 6.54806V13.0961Z" fill="white"/>
<path d="M15.7167 5.37025L18.335 4.58431V0H15.7167V5.37025Z" fill="white"/>
<path d="M15.7167 13.0961H18.335V8.51403L15.7167 7.72809V13.0961Z" fill="white"/>
<path d="M19.6464 4.19022L22.2647 3.40428V0H19.6464V4.19022Z" fill="white"/>
<path d="M19.6464 13.0961H22.2647V9.69184L19.6464 8.90589V13.0961Z" fill="white"/>
<path d="M28.4098 12.8779L27.0494 11.5175C26.8936 11.3617 26.849 11.1969 26.849 10.9966V2.1196C26.849 1.92813 26.8958 1.73665 27.0494 1.5808L28.4098 0.220421C28.5478 0.0734736 28.7393 0 28.9486 0H30.9034C31.1038 0 31.2953 0.0734736 31.4423 0.218194L32.8026 1.57857C32.9585 1.73442 32.9941 1.9259 32.9941 2.11738V4.45517H30.6185V2.30885C30.6185 2.12628 30.4626 1.97043 30.28 1.97043H29.5587C29.3761 1.97043 29.2202 2.13519 29.2202 2.30885V10.785C29.2202 10.9676 29.3761 11.1235 29.5498 11.1235H30.28C30.4626 11.1235 30.6185 10.9765 30.6185 10.785V8.6209H32.9941V10.9966C32.9941 11.1969 32.9473 11.3617 32.7937 11.5175L31.4333 12.8779C31.2775 13.0338 31.1038 13.0961 30.8945 13.0961H28.9486C28.7393 13.0961 28.5567 13.0315 28.4098 12.8779Z" fill="white"/>
<path d="M33.8914 11.5175C33.7355 11.3617 33.691 11.1969 33.691 10.9966V2.1196C33.691 1.92813 33.7377 1.73665 33.8914 1.5808L35.2517 0.220421C35.3876 0.0734736 35.579 0 35.7906 0H37.7454C37.9458 0 38.1373 0.0734736 38.2842 0.218194L39.6446 1.57857C39.8004 1.73442 39.8361 1.9259 39.8361 2.11738V10.9943C39.8361 11.1947 39.7893 11.3595 39.6357 11.5153L38.2753 12.8757C38.1194 13.0315 37.9458 13.0939 37.7365 13.0939H35.7906C35.5813 13.0939 35.3987 13.0293 35.2517 12.8757L33.8914 11.5153V11.5175ZM36.4028 1.96375C36.2203 1.96375 36.0644 2.13741 36.0644 2.31108V10.7784C36.0644 10.9609 36.2114 11.1257 36.3939 11.1257L37.1242 11.1168C37.3068 11.1257 37.4626 10.9698 37.4626 10.7784V2.31108C37.4626 2.12851 37.3068 1.96375 37.1242 1.96375H36.4028Z" fill="white"/>
<path d="M46.1103 11.1235V0H48.4748V13.0961H45.6984C45.0861 13.0961 44.6386 12.6308 44.5206 12.0541L43.5899 7.20487V1.97266H42.9041V13.0961H40.5285V0H43.3227C43.9261 0 44.3914 0.438615 44.4916 1.01305L45.4134 6.20073V11.1235H46.1103Z" fill="white"/>
<path d="M52.9077 13.0961H50.5231V1.97266H48.6974V0H54.7245V1.97266H52.8988L52.9077 13.0961Z" fill="white"/>
<path d="M53.6023 13.0961L55.6195 0H58.7522L60.7894 13.0961H58.3225L58.0308 10.293H56.3587L56.076 13.0961H53.6001H53.6023ZM57.5298 5.6263V1.97266H56.8441V5.6263L56.5235 8.73223H57.8482L57.5276 5.6263H57.5298Z" fill="white"/>
<path d="M61.021 0H63.3966V13.0961H61.021V0Z" fill="white"/>
<path d="M69.6708 11.1235V0H72.0353V13.0961H69.2589C68.6466 13.0961 68.1991 12.6308 68.0811 12.0541L67.1504 7.20487V1.97266H66.4647V13.0961H64.089V0H66.8832C67.4866 0 67.952 0.438615 68.0521 1.01305L68.9739 6.20073V11.1235H69.6708Z" fill="white"/>
<path d="M78.3095 11.1235V0H80.674V13.0961H77.8976C77.2853 13.0961 76.8378 12.6308 76.7198 12.0541L75.7891 7.20487V1.97266H75.1034V13.0961H72.7277V0H75.522C76.1253 0 76.5907 0.438615 76.6909 1.01305L77.6126 6.20073V11.1235H78.3095Z" fill="white"/>
<path d="M83.7443 11.1324H86.8414V13.0961H81.3709V0H86.8414V1.97266H83.7443V5.76211H86.3115V7.32287H83.7443V11.1324Z" fill="white"/>
<path d="M91.3544 0C91.5548 0 91.7463 0.0734736 91.8932 0.218194L93.2536 1.57857C93.4095 1.73442 93.4451 1.9259 93.4451 2.11738V5.2144C93.4451 5.41478 93.3983 5.57954 93.2447 5.73539L92.1203 6.85976L93.4718 9.0239L93.4451 13.0983H91.0427V7.32732H89.6734V13.0983H87.2978V0H91.3544ZM89.6734 5.76211H90.7332C90.9158 5.76211 91.0717 5.60626 91.0717 5.41478V2.30885C91.0717 2.12628 90.9158 1.96152 90.7332 1.97043H89.6734V5.76211Z" fill="white"/>
<path d="M95.4044 12.4415C95.4044 12.8022 95.1105 13.0961 94.7498 13.0961C94.3891 13.0961 94.0952 12.8022 94.0952 12.4349C94.0952 12.0675 94.3913 11.7847 94.7609 11.7847C95.1105 11.7847 95.4044 12.0831 95.4044 12.4393V12.4415ZM94.2021 12.4371C94.2021 12.7198 94.4537 12.9892 94.7476 12.9892C95.0415 12.9892 95.293 12.731 95.293 12.4415C95.293 12.1521 95.0437 11.8871 94.7565 11.8871C94.4693 11.8871 94.2021 12.1499 94.2021 12.4371ZM95.037 12.6241C95.037 12.6441 95.037 12.662 95.037 12.6798C95.037 12.7287 95.0437 12.771 95.086 12.7978V12.8267H94.9479C94.9346 12.7933 94.9257 12.7443 94.9257 12.6976V12.6308C94.9257 12.5484 94.8856 12.4972 94.8055 12.4972H94.565V12.8245H94.4492V12.043H94.8099C94.9613 12.043 95.0548 12.1231 95.0548 12.2567C95.0548 12.348 95.0214 12.4081 94.9524 12.4371C95.0214 12.4705 95.037 12.5506 95.037 12.6196V12.6241ZM94.7899 12.1499H94.565V12.3948H94.7899C94.8789 12.3948 94.9346 12.3658 94.9346 12.2723C94.9346 12.161 94.8722 12.1499 94.7899 12.1499Z" fill="white"/>
</svg>
