<svg width="113" height="41" viewBox="0 0 113 41" fill="none" xmlns="http://www.w3.org/2000/svg">
<path d="M13.7477 33.0024C13.4787 32.5675 13.2053 32.1611 12.9681 31.73C12.6419 31.145 12.5775 30.4885 12.5844 29.8331C12.6028 27.7995 11.8608 26.0119 10.8215 24.3205C9.45315 22.0952 8.94318 19.6983 9.42215 17.121C9.97168 14.1808 11.44 11.9009 14.1783 10.513C18.008 8.57291 21.7293 8.81217 25.2864 11.1057C29.0604 13.5369 30.2504 17.9453 29.0412 22.0032C28.667 23.254 28.0421 24.3694 27.2397 25.3997C26.6124 26.2071 26.0563 27.071 25.4867 27.9219C24.8622 28.8553 24.6198 29.9144 24.5466 31.0172C24.4977 31.6887 24.2419 32.2602 23.8614 32.8162C23.4809 33.3721 22.9608 33.5667 22.3386 33.6112C20.4152 33.7531 18.4902 33.8718 16.5693 34.034C15.6424 34.1115 14.7196 34.2535 13.7989 34.3892C13.4836 34.436 13.3468 34.3001 13.2918 34.0315C13.1966 33.566 13.3087 33.3152 13.7477 33.0024ZM10.3458 18.3093C10.3854 18.9977 10.3682 19.6956 10.4759 20.3729C10.7704 22.2169 11.7394 23.7837 12.6792 25.3444C13.2159 26.2353 13.5597 27.229 13.6885 28.2611C13.7921 29.0392 13.8448 29.8232 13.9639 30.5976C14.1628 31.8949 15.2445 32.7066 16.5473 32.6092C17.4897 32.5392 18.4355 32.5216 19.3777 32.4548C20.3715 32.3837 21.3649 32.3062 22.3535 32.1859C22.9328 32.115 23.0758 31.8793 23.2067 31.3492C23.501 30.1496 23.7831 28.9418 24.1801 27.7745C24.3652 27.2267 24.7485 26.7207 25.1308 26.2715C26.12 25.1088 27.0273 23.8921 27.667 22.5084C28.3067 21.1246 28.4501 19.6525 28.321 18.1358C28.1269 15.8605 27.1636 14.0063 25.3796 12.5878C23.8117 11.3405 22.0383 10.5457 20.0333 10.3771C18.9017 10.2817 17.7758 10.4274 16.6749 10.7352C13.1056 11.7321 10.5754 14.4782 10.3458 18.3093Z" fill="white"/>
<path d="M14.3292 36.903C13.8534 36.886 13.4595 36.482 13.4586 36.0987C13.4576 35.7154 13.7173 35.5411 14.2348 35.5034C15.3223 35.4224 16.4072 35.3115 17.4931 35.2094C18.7504 35.091 20.0077 34.9689 21.265 34.843C21.4225 34.8272 21.5786 34.7857 21.7349 34.7546C22.2319 34.6561 22.611 34.8345 22.7109 35.213C22.8031 35.5645 22.5334 36.0965 22.1416 36.2034C21.7425 36.3001 21.3356 36.3609 20.9256 36.385C18.8444 36.5579 16.7629 36.7229 14.6818 36.8838C14.5332 36.8979 14.3863 36.9008 14.3292 36.903Z" fill="white"/>
<path d="M17.7701 39.4703C17.0946 39.421 16.4105 39.4233 15.7466 39.3019C15.3621 39.2257 15.008 39.0394 14.7274 38.7658C14.3496 38.383 14.5447 37.9715 15.0814 37.9345C16.1154 37.8623 17.1507 37.8159 18.1851 37.7599C19.0479 37.7145 19.911 37.6548 20.7743 37.6359C21 37.6308 21.2292 37.7533 21.4562 37.8172C21.3775 38.0832 21.3705 38.4107 21.2056 38.6047C20.7012 39.1989 19.9693 39.3508 19.2354 39.4432C18.7498 39.5048 18.2568 39.5258 17.7672 39.5647L17.7701 39.4703Z" fill="white"/>
<path d="M19.9209 4.09967C19.9742 3.36911 20.0275 2.63855 20.0807 1.90799C20.0866 1.81638 20.112 1.72709 20.1555 1.64619C20.1989 1.5653 20.2592 1.4947 20.3323 1.43918C20.4054 1.38366 20.4896 1.34453 20.5792 1.32444C20.6688 1.30435 20.7616 1.30377 20.8514 1.32275C20.9044 1.34098 20.9527 1.37043 20.9932 1.40909C21.0337 1.44774 21.0654 1.49469 21.0861 1.54672C21.1258 1.68531 21.1386 1.83022 21.1239 1.97363C21.0488 3.15721 20.9809 4.34132 20.8803 5.52305C20.8545 5.87716 20.7322 6.22424 20.6435 6.57216C20.5494 6.93814 20.2765 6.86612 20.0025 6.84053C19.7103 6.81281 19.6516 6.63935 19.668 6.40322C19.7241 5.63278 19.7804 4.86155 19.8366 4.09031L19.9209 4.09967Z" fill="white"/>
<path d="M7.49094 13.6528C7.44873 14.1107 7.21909 14.2471 6.86857 14.1061C6.58827 13.9845 6.31562 13.846 6.05211 13.6914C5.04984 13.142 4.04698 12.6007 3.05431 12.0296C2.50418 11.712 2.47335 11.365 2.88924 10.9944C3.12594 10.7832 3.33334 10.8857 3.54192 11.0052C4.41773 11.5076 5.29319 12.0148 6.16191 12.5264C6.51921 12.7302 6.86182 12.9588 7.18724 13.2105C7.34464 13.339 7.42931 13.5633 7.49094 13.6528Z" fill="white"/>
<path d="M36.9693 13.9764C36.8701 14.0734 36.7115 14.3128 36.4897 14.4297C36.1286 14.6207 35.7245 14.7299 35.3402 14.8759C34.5074 15.1912 33.676 15.5099 32.8426 15.8227C32.6843 15.8886 32.5195 15.9373 32.3509 15.9681C32.0339 16.0155 31.7906 15.8005 31.8925 15.5033C31.9781 15.253 32.17 14.9414 32.393 14.8518C33.7239 14.3147 35.0744 13.827 36.4255 13.341C36.783 13.2107 37.002 13.4183 36.9693 13.9764Z" fill="white"/>
<path d="M1.97288 21.561C1.89347 21.5512 1.81361 21.5454 1.73362 21.5436C1.41956 21.5511 1.21638 21.3687 1.25342 21.0916C1.27928 20.9019 1.47334 20.6266 1.63829 20.5857C2.13886 20.4723 2.66191 20.4575 3.17504 20.4027C3.86032 20.3292 4.54955 20.2455 5.23247 20.1823C5.48289 20.1602 5.7349 20.1638 5.98458 20.193C6.25732 20.2241 6.46542 20.3612 6.4698 20.675C6.47418 20.9888 6.32431 21.1968 6.01392 21.2311C5.13057 21.327 4.24581 21.4092 3.36122 21.489C2.89956 21.5308 2.4366 21.5571 1.97392 21.5908L1.97288 21.561Z" fill="white"/>
<path d="M8.63478 27.3041C8.52777 27.4631 8.47659 27.5932 8.38201 27.6697C7.25423 28.5777 6.11906 29.4771 4.98764 30.3801C4.73906 30.5784 4.54481 30.5923 4.32794 30.3007C4.12785 30.0319 4.06917 29.836 4.34774 29.5893C5.46207 28.6018 6.61241 27.6594 7.87101 26.8595C7.93132 26.8306 7.99761 26.8162 8.06451 26.8176C8.1314 26.819 8.19703 26.8361 8.25608 26.8676C8.40412 26.9706 8.50289 27.1445 8.63478 27.3041Z" fill="white"/>
<path d="M12.898 8.50982C12.7309 8.67964 12.6016 8.87948 12.4187 8.96878C12.3156 9.01899 12.0652 8.93498 11.9814 8.83026C11.2009 7.8561 10.4352 6.87019 9.68425 5.87252C9.53835 5.67427 9.36994 5.3998 9.67993 5.17304C10.0144 4.92883 10.3579 4.94746 10.5997 5.26015C11.2986 6.16422 11.9823 7.08081 12.6626 7.99955C12.7579 8.13238 12.8023 8.304 12.898 8.50982Z" fill="white"/>
<path d="M30.349 6.32167C30.5774 6.48826 30.8396 6.59798 30.9453 6.7861C31.0047 6.89546 30.8493 7.17999 30.7201 7.32451C29.9678 8.15164 29.1977 8.95982 28.4252 9.76703C28.3176 9.88025 28.1733 10.0108 28.0335 10.0263C27.8783 10.0439 27.6558 9.98353 27.5636 9.87338C27.4714 9.76323 27.4389 9.50508 27.5101 9.39722C27.729 9.06681 28.0069 8.77437 28.2671 8.47183C28.8059 7.84562 29.3423 7.21844 29.8938 6.60439C29.9952 6.48911 30.1637 6.43324 30.349 6.32167Z" fill="white"/>
<path d="M19.1655 20.5527C19.5761 19.7929 19.8847 19.1122 20.2913 18.4948C20.7502 17.7978 21.285 17.1497 21.811 16.5001C21.9477 16.3305 22.1636 16.2171 22.3594 16.1055C22.8941 15.7989 23.3672 15.9521 23.5672 16.5408C23.6886 16.906 23.7532 17.2876 23.7589 17.6724C23.7802 18.9381 23.6315 20.2009 23.3168 21.4271C22.7453 23.6561 22.2266 25.8994 21.6261 28.119C21.3927 28.9888 20.9982 29.8139 20.6947 30.6666C20.5798 30.9893 20.356 31.0019 20.0888 30.9487C19.7965 30.8897 19.7424 30.6741 19.8004 30.4298C19.9173 29.9252 20.0213 29.4124 20.1993 28.9282C20.8512 27.1254 21.3522 25.2715 21.6971 23.3856C21.9294 22.1453 22.3161 20.9332 22.5428 19.6925C22.6927 18.8679 22.682 18.0141 22.6679 17.1303C22.433 17.4042 22.193 17.6729 21.9665 17.9523C20.9979 19.1405 20.2832 20.4754 19.708 21.8872C19.6426 22.0476 19.6071 22.2382 19.4957 22.3576C19.3452 22.5198 19.1317 22.7319 18.9532 22.7269C18.7748 22.7219 18.5142 22.4808 18.4735 22.3023C18.2133 21.1528 17.7858 20.0664 17.3065 18.9972C17.0149 18.3449 16.7035 17.7008 16.4011 17.0534L16.2731 17.0489C16.1741 17.7031 15.9624 18.3636 15.9978 19.0108C16.0888 20.7092 16.2756 22.4034 16.4481 24.0949C16.6248 25.8285 16.837 27.559 17.0186 29.2913C17.0369 29.5437 17.0332 29.7972 17.0074 30.0489C16.9842 30.368 16.8139 30.5039 16.4784 30.4979C16.1221 30.4911 16.0412 30.369 16.0115 30.006C15.8779 28.3638 15.6894 26.7264 15.5219 25.0866C15.3471 23.3387 15.1489 21.5924 15.0226 19.8385C14.9332 18.6117 15.1024 17.3916 15.3504 16.1886C15.411 15.8964 15.475 15.5803 15.8586 15.4984C16.2657 15.4127 16.6126 15.5045 16.8743 15.8082C17.1078 16.0649 17.3051 16.3522 17.4607 16.6624C17.902 17.615 18.3067 18.5858 18.7255 19.5489C18.8571 19.8551 18.9908 20.1551 19.1655 20.5527Z" fill="white"/>
<path d="M82.8711 33.4522C82.8711 33.8419 82.7452 34.4133 82.9006 34.8928C83.1437 35.6394 83.8979 35.9306 84.7047 35.7062C87.1262 35.0318 88.7475 33.4412 89.6736 31.1566C90.337 29.5211 90.8887 27.8407 91.4755 26.1756C91.6638 25.6425 92.0064 25.348 92.5702 25.3864C94.5023 25.5177 94.2122 25.7367 93.6901 27.104C92.9566 29.0076 92.1838 30.896 91.4864 32.8128C91.2604 33.4865 91.116 34.1848 91.0562 34.8928C90.9916 35.4905 91.3583 35.7171 91.8827 35.4292C93.0869 34.7724 93.9889 33.8244 94.417 32.4844C95.1833 30.0837 96.1389 27.7892 98.0645 26.0487C98.3612 25.7786 98.6797 25.5336 99.0169 25.3163C100.055 24.6595 101.241 24.9594 101.87 26.0202C101.959 26.1724 102.067 26.3136 102.221 26.5435C102.369 26.2621 102.477 26.0651 102.577 25.8615C103.005 24.9857 103.815 24.7897 104.612 25.359C105.354 25.8877 105.338 25.8844 104.94 26.7153C103.778 29.1511 102.729 31.6328 102.01 34.2425C101.962 34.4155 101.893 34.6169 101.938 34.7757C101.997 34.9848 102.119 35.2376 102.29 35.3318C102.419 35.4029 102.717 35.3088 102.857 35.1906C104.089 34.155 104.961 32.8347 105.775 31.4686C106.917 29.5411 108.08 27.6254 109.263 25.7213C109.598 25.1838 110.03 24.7076 110.436 24.2117C110.865 23.6819 111.443 23.5877 112.071 23.7136C112.673 23.8187 112.936 24.3256 112.564 24.804C111.711 25.8866 111.814 27.0624 112.031 28.295C112.254 29.567 112.447 30.8442 112.61 32.1265C112.886 34.3334 111.703 36.5206 109.732 37.2114C107.51 37.9908 106.566 37.7018 105.043 35.959C104.703 35.5693 104.564 35.6306 104.199 35.9174C103.519 36.4517 102.808 37.0001 102.021 37.3329C100.894 37.8091 99.7219 36.8523 99.7569 35.612C99.7569 35.4544 99.7569 35.2967 99.7569 34.9552C99.5303 35.2146 99.4044 35.3438 99.295 35.4861C98.7038 36.2524 98.1127 37.0121 97.215 37.4686C96.198 37.9864 95.365 37.843 94.6282 36.9749C94.5341 36.8655 94.4421 36.756 94.3513 36.6367C94.0491 36.2579 93.7525 36.1856 93.342 36.5338C92.6162 37.1457 91.7831 37.519 90.8066 37.5562C89.667 37.5989 89.0627 37.2191 88.696 36.1495C88.626 35.947 88.5581 35.7434 88.4672 35.4763C88.2932 35.5704 88.1585 35.6449 88.0228 35.7171C87.0091 36.2557 86.0216 36.8545 84.9718 37.3088C84.3905 37.5617 83.7074 37.6372 83.0637 37.6777C81.9756 37.7379 81.3549 37.0056 80.8305 36.1747C80.4529 35.577 80.4266 35.5715 79.9263 36.0751C79.3045 36.7002 78.6619 37.2902 77.7675 37.4982C76.7823 37.727 76.1047 37.38 75.7007 36.4484C75.5792 36.1681 75.4599 35.8879 75.2946 35.5025C75.1107 35.7379 74.9881 35.8835 74.8775 36.0379C74.3302 36.7921 73.6733 37.403 72.7976 37.7598C71.9218 38.1167 70.9683 37.8135 70.3575 37.0713C69.6547 36.2174 69.4927 35.2639 69.5912 34.2031C69.8108 31.9032 70.6179 29.6984 71.9349 27.8002C72.5797 26.8609 73.5015 26.0815 74.398 25.3557C75.2738 24.6485 76.2974 24.897 76.9607 25.8111C77.0527 25.937 77.1534 26.0585 77.3165 26.2665C77.4545 26.0027 77.5683 25.8286 77.6449 25.6381C78.4966 23.4487 79.3363 21.2516 80.1945 19.0633C80.5153 18.2445 80.9466 18.0299 81.7271 18.2401C81.8938 18.2874 82.049 18.3683 82.1833 18.4779C82.3175 18.5874 82.4279 18.7233 82.5076 18.8772C82.5872 19.031 82.6346 19.1996 82.6466 19.3724C82.6587 19.5453 82.6352 19.7187 82.5777 19.8822C81.0747 24.007 79.5683 28.1297 78.1003 32.2666C77.8595 32.9453 77.8004 33.6897 77.6789 34.4078C77.6504 34.606 77.6627 34.8079 77.715 35.0012C77.854 35.5409 78.1638 35.6667 78.5765 35.3099C79.5191 34.4987 80.3532 33.6383 80.6225 32.318C81.0396 30.2677 82.003 28.4373 83.2794 26.7952C83.9259 25.9491 84.7853 25.2896 85.7699 24.8839C86.3314 24.6551 86.9051 24.6857 87.3955 25.0196C89.1405 26.2074 89.7196 27.694 88.7869 29.5692C88.0267 31.1065 86.758 32.3333 85.1962 33.0416C84.5602 33.3427 83.7731 33.3033 82.8711 33.4522ZM110.02 27.8692L109.882 27.8297C109.772 27.9797 109.648 28.122 109.553 28.2808C108.74 29.6382 107.931 30.9975 107.124 32.3585C106.867 32.7964 106.577 33.2256 106.4 33.6952C106.13 34.4035 106.457 35.173 107.134 35.635C107.721 36.0346 108.633 36.0729 109.083 35.6733C109.754 35.0789 110.306 34.3739 110.296 33.4379C110.279 31.8758 110.186 30.3136 110.117 28.7526C110.098 28.4581 110.046 28.1647 110.014 27.8692H110.02ZM76.9235 28.0377C76.9334 27.5506 76.5699 27.2966 76.1879 27.5013C75.8004 27.7018 75.4356 27.9432 75.0997 28.2216C73.4697 29.6185 72.6038 31.4707 72.0937 33.4992C71.9586 34.0805 71.9385 34.6826 72.0346 35.2716C72.1232 35.8452 72.5666 35.9722 72.9979 35.5803C73.4588 35.17 73.8732 34.7104 74.2338 34.2097C75.3767 32.583 76.0773 30.746 76.6586 28.8599C76.744 28.5654 76.8425 28.2731 76.9181 28.0388L76.9235 28.0377ZM96.5122 34.8326L96.9118 35.6131C97.1822 35.4697 97.5018 35.3788 97.7153 35.1752C99.1691 33.7992 100.143 32.11 100.874 30.2611C101.108 29.6688 101.368 29.0854 101.561 28.48C101.722 27.9732 101.412 27.6108 101.036 27.3229C100.64 27.0218 100.379 27.3481 100.153 27.5856C99.6453 28.133 99.122 28.6716 98.7027 29.2824C97.5381 30.931 96.7852 32.8345 96.5068 34.8337L96.5122 34.8326ZM83.4283 31.7006C84.2362 31.7805 84.8109 31.4576 85.3615 31.0701C86.5165 30.2556 87.0956 29.0919 87.3068 27.7345C87.3112 27.607 87.2863 27.4802 87.2339 27.3638C87.1815 27.2475 87.1031 27.1447 87.0047 27.0634C86.8952 26.9835 86.5219 27.1237 86.3676 27.2714C85.8312 27.7599 85.3335 28.2891 84.8788 28.8544C84.2395 29.6918 83.8114 30.6497 83.4283 31.7006Z" fill="white"/>
<path d="M43.1748 25.2419C42.4282 26.5106 41.6553 27.7597 40.9394 29.0503C39.6728 31.3273 38.4369 33.6207 37.1944 35.9109C36.8102 36.6268 36.3646 36.8063 35.6279 36.5173C34.8517 36.2141 34.5397 35.623 34.6667 34.907C35.2546 31.589 35.8184 28.2676 36.3865 24.9452C36.4358 24.6584 36.4555 24.3661 36.4883 24.076L36.3559 24.0399C36.2883 24.1302 36.2286 24.2262 36.1774 24.3267C34.4346 28.6953 32.6955 33.0639 30.96 37.4325C30.7663 37.9219 30.6404 38.4386 30.4674 38.9377C30.2945 39.4369 29.9682 39.7139 29.4023 39.6843C28.9162 39.6592 28.4236 39.7248 27.9408 39.6778C27.5369 39.6373 27.4033 39.3964 27.584 38.9761C28.2707 37.388 28.9429 35.7934 29.6004 34.1922C30.8539 31.127 32.0832 28.0454 33.3399 24.978C34.0657 23.2079 34.8244 21.4509 35.5709 19.6895C35.6467 19.484 35.7408 19.2858 35.8523 19.0973C36.1041 18.7174 36.2004 18.1755 36.7795 18.112C37.5458 18.0288 38.3187 18.0606 38.8594 18.6747C39.0784 18.9199 39.178 19.3863 39.1287 19.7212C38.739 22.3321 38.299 24.9364 37.8753 27.5418C37.7428 28.3508 37.6082 29.1598 37.4823 29.9699C37.4776 30.1244 37.4864 30.2789 37.5086 30.4319C37.615 30.3203 37.7151 30.203 37.8085 30.0805C39.9615 26.6978 42.1144 23.3148 44.2673 19.9314C44.6297 19.3633 45.0161 18.8094 45.4036 18.2576C45.8185 17.6698 46.3166 17.5307 46.9636 17.9051C47.6346 18.2937 47.963 18.6714 47.7627 19.4136C46.6965 23.3316 45.6477 27.2539 44.6833 31.1971C44.2126 33.1216 43.9225 35.0898 43.5886 37.0461C43.5295 37.3997 43.64 37.7992 43.7418 38.1583C43.8623 38.5798 43.801 38.8994 43.4572 39.1797C43.0927 39.4774 42.7818 39.3734 42.4162 39.1578C40.8737 38.2481 40.8091 36.8589 41.1386 35.3362C41.8228 32.1867 42.5202 29.0405 43.2109 25.8932C43.2427 25.752 43.2766 25.6108 43.2974 25.4674C43.2996 25.4001 43.2937 25.3329 43.2799 25.267L43.1748 25.2419Z" fill="white"/>
<path d="M51.719 35.4412C51.0622 35.97 50.5017 36.502 49.858 36.8983C49.3314 37.2267 48.7228 37.5091 48.1185 37.6022C46.367 37.8715 45.2416 36.7407 45.5295 34.9804C45.6839 34.0389 46.009 33.1194 46.3275 32.2119C47.0041 30.2895 47.7342 28.3804 48.4261 26.4668C48.714 25.6688 49.0271 25.4816 49.8602 25.6228C51.0643 25.8308 51.3512 25.6578 50.7031 27.2495C49.8788 29.2726 49.1289 31.3262 48.3856 33.3799C48.2245 33.8839 48.1342 34.4078 48.1174 34.9366C48.1021 35.1741 48.2148 35.5113 48.3889 35.6416C48.5224 35.7401 48.8826 35.6416 49.0774 35.5321C50.1966 34.8608 51.0915 33.8725 51.6489 32.6924C51.9018 32.1746 51.8821 31.5244 51.9916 30.9409C52.5729 27.8057 53.8143 24.9123 55.2669 22.1022C55.7315 21.1754 56.2662 20.2854 56.8663 19.4399C57.152 19.0469 57.6643 18.7579 58.134 18.5773C58.666 18.3726 59.1411 18.5773 59.6074 18.9955C60.9134 20.169 61.0744 21.556 60.4493 23.0667C59.0524 26.4406 57.3151 29.6075 54.5652 32.1057C54.2368 32.4056 54.0179 32.7384 54.0617 33.2004C54.123 33.8506 54.1241 34.514 54.2664 35.1457C54.4087 35.7773 54.8334 35.9842 55.4322 35.693C55.9544 35.4389 56.4377 35.1116 56.8674 34.7209C57.5122 34.132 58.0902 33.4708 58.689 32.8326C58.967 32.537 59.2363 32.2589 59.6578 32.5994C60.0793 32.9398 60.1351 33.1905 59.7519 33.6733C58.5708 35.1643 57.3107 36.5841 55.649 37.5639C53.9872 38.5436 52.4546 37.9032 51.9182 36.0313C51.87 35.8605 51.8077 35.6963 51.719 35.4412ZM59.2725 20.7251C57.5954 21.8362 54.1952 28.8785 54.6626 30.1221C56.9112 27.3218 58.7306 24.3332 59.2714 20.7251H59.2725Z" fill="white"/>
<path d="M69.2354 21.5385C69.0756 21.522 69.0088 21.4936 68.9716 21.5155C67.3634 22.4657 66.1779 23.7268 65.9458 25.6754C65.9305 25.8013 65.9458 25.9315 65.9458 26.0585C65.9283 26.295 65.902 26.5314 65.8801 26.769C65.636 26.6814 65.3645 26.6376 65.1543 26.4997C64.1045 25.8089 63.8637 25.0306 64.2786 23.8209C64.9233 21.9599 66.2644 20.7284 67.902 19.7431C68.6902 19.2691 69.5047 18.9768 70.4341 19.013C71.1358 19.0392 71.9667 19.5538 72.1769 20.2084C72.2333 20.4533 72.2154 20.7094 72.1254 20.944C71.2789 23.4079 70.4199 25.8677 69.5485 28.3235C68.7636 30.5578 67.971 32.7888 67.1872 35.022C66.9464 35.7084 67.0416 35.9163 67.6163 36.3674C67.821 36.5272 68.0969 36.8458 68.0542 37.0154C67.9896 37.2563 67.6634 37.4314 67.4401 37.6241C67.3789 37.6644 67.3076 37.6868 67.2343 37.6887C66.1396 37.8102 65.035 37.9076 63.9392 38.0532C63.2287 38.1452 62.8631 37.6701 62.5161 37.2158C62.2818 36.9103 62.4767 36.6312 62.7887 36.4593C62.8638 36.4072 62.9515 36.3758 63.0426 36.3685C63.9655 36.4418 64.1658 35.8211 64.4176 35.103C65.9502 30.7395 67.5244 26.3913 69.0854 22.0387C69.1336 21.891 69.173 21.7388 69.2354 21.5385Z" fill="white"/>
<path d="M50.9582 24.1143C50.5673 24.0683 50.055 24.215 49.8558 23.6195C49.5876 22.8225 49.7343 22.1011 50.2827 21.6764C50.5254 21.4821 50.8132 21.3524 51.1195 21.2994C51.4257 21.2464 51.7404 21.2718 52.0343 21.3732C52.5674 21.5395 52.7458 21.8614 52.6385 22.4142C52.5988 22.6471 52.5398 22.8763 52.4623 23.0995C52.1722 23.9085 51.8591 24.1176 50.9582 24.1143Z" fill="white"/>
<path d="M94.0469 23.9359C93.0869 23.9096 92.7979 23.6173 92.8154 22.689C92.8329 21.7607 93.5478 21.1148 94.5538 21.1422C95.2205 21.1608 95.7328 21.5505 95.7164 22.0267C95.6726 23.2714 95.0716 23.9621 94.0469 23.9359Z" fill="white"/>
</svg>
