<svg width="20" height="19" viewBox="0 0 20 19" fill="none" xmlns="http://www.w3.org/2000/svg">
<path d="M0.000499964 2.75C0.000499964 2.02065 0.290231 1.32118 0.805956 0.805456C1.32168 0.289731 2.02115 0 2.7505 0H17.2505C17.9798 0 18.6793 0.289731 19.195 0.805456C19.7108 1.32118 20.0005 2.02065 20.0005 2.75V12.25C20.0005 12.9793 19.7108 13.6788 19.195 14.1945C18.6793 14.7103 17.9798 15 17.2505 15H8.0005V14C8.1205 13.84 8.23083 13.6733 8.3315 13.5H17.2505C17.9405 13.5 18.5005 12.94 18.5005 12.25V2.75C18.5005 2.06 17.9405 1.5 17.2505 1.5H2.7505C2.0605 1.5 1.5005 2.06 1.5005 2.75V6.669C0.91584 7.00652 0.405586 7.45895 0.000499964 7.999V2.75ZM4.7505 4C4.55159 4 4.36082 4.07902 4.22017 4.21967C4.07952 4.36032 4.0005 4.55109 4.0005 4.75C4.0005 4.94891 4.07952 5.13968 4.22017 5.28033C4.36082 5.42098 4.55159 5.5 4.7505 5.5H15.2505C15.4494 5.5 15.6402 5.42098 15.7808 5.28033C15.9215 5.13968 16.0005 4.94891 16.0005 4.75C16.0005 4.55109 15.9215 4.36032 15.7808 4.21967C15.6402 4.07902 15.4494 4 15.2505 4H4.7505ZM10.7505 9C10.5516 9 10.3608 9.07902 10.2202 9.21967C10.0795 9.36032 10.0005 9.55109 10.0005 9.75C10.0005 9.94891 10.0795 10.1397 10.2202 10.2803C10.3608 10.421 10.5516 10.5 10.7505 10.5H15.2505C15.4494 10.5 15.6402 10.421 15.7808 10.2803C15.9215 10.1397 16.0005 9.94891 16.0005 9.75C16.0005 9.55109 15.9215 9.36032 15.7808 9.21967C15.6402 9.07902 15.4494 9 15.2505 9H10.7505ZM4.0005 7C2.9395 7 1.92196 7.42148 1.17172 8.17172C0.42148 8.92196 0 9.9395 0 11.0005C0 12.0615 0.42148 13.079 1.17172 13.8293C1.92196 14.5795 2.9395 15.001 4.0005 15.001C5.0615 15.001 6.07904 14.5795 6.82928 13.8293C7.57952 13.079 8.001 12.0615 8.001 11.0005C8.001 9.9395 7.57952 8.92196 6.82928 8.17172C6.07904 7.42148 5.0615 7 4.0005 7ZM7.0005 15.001C6.1655 15.629 5.1265 16.001 4.0005 16.001C2.91864 16.003 1.86555 15.6527 1.0005 15.003V18.249C1.0005 18.819 1.6055 19.169 2.0905 18.918L2.1805 18.863L4.0005 17.592L5.8205 18.864C5.92561 18.9374 6.04777 18.9826 6.17533 18.9954C6.30289 19.0081 6.43159 18.9879 6.54914 18.9368C6.66668 18.8856 6.76916 18.8052 6.84678 18.7032C6.92439 18.6012 6.97456 18.4809 6.9925 18.354L7.0005 18.249V15.001Z" fill="white"/>
</svg>
