<svg width="22" height="20" viewBox="0 0 22 20" fill="none" xmlns="http://www.w3.org/2000/svg">
<path d="M5.04111 1.17692C5.30611 0.560919 6.10511 -0.228081 7.22111 0.0619187C7.92111 0.242919 8.42511 0.661919 8.71011 1.23892C8.95811 1.74192 9.00011 2.28892 9.01011 2.70592C9.00901 3.11449 8.96239 3.52167 8.87111 3.91992H9.06511C10.6231 3.91992 11.8871 5.35192 11.3971 6.90992L10.2471 10.5649C9.78211 12.0469 8.14711 12.8149 6.67011 12.3809L2.15811 11.0579C1.81097 10.9587 1.49069 10.7825 1.22111 10.5423C0.951526 10.3022 0.739599 10.0043 0.601108 9.67092L0.163107 8.58292C-0.275893 7.49292 0.203107 6.29692 1.21811 5.73792L2.76011 4.88792L2.79011 4.86492C2.84111 4.82492 2.93311 4.74692 3.05311 4.61992C3.29211 4.36892 3.64911 3.91992 4.01511 3.19192C4.19311 2.83892 4.34211 2.56192 4.47411 2.31792V2.31592C4.68711 1.92092 4.85211 1.61592 5.04011 1.17592M3.49111 6.19892L1.94311 7.05192C1.54811 7.26892 1.41911 7.68192 1.55511 8.02192L1.99311 9.11192C2.08511 9.33792 2.29311 9.53392 2.58111 9.61892L7.09311 10.9419C7.86311 11.1679 8.62011 10.7439 8.81811 10.1149L9.96811 6.46092C10.1111 6.00492 9.75811 5.41992 9.06611 5.41992H7.89911C7.78153 5.41991 7.66561 5.39225 7.56069 5.33919C7.45577 5.28612 7.3648 5.20913 7.29511 5.11444C7.22543 5.01974 7.17898 4.90998 7.15953 4.79403C7.14007 4.67808 7.14815 4.55918 7.18311 4.44692C7.23511 4.27992 7.28811 4.09492 7.33611 3.90492C7.44211 3.48192 7.51611 3.05492 7.51011 2.73692C7.50211 2.37092 7.46011 2.09792 7.36511 1.90292C7.28011 1.73292 7.13811 1.58992 6.84411 1.51292C6.80455 1.5016 6.76299 1.49913 6.72237 1.5057C6.68175 1.51227 6.64308 1.52771 6.60911 1.55092C6.52553 1.60355 6.45942 1.67976 6.41911 1.76992C6.20311 2.27192 6.01211 2.62692 5.79911 3.01992L5.79611 3.02692C5.66411 3.27192 5.52411 3.53292 5.35611 3.86592C4.92411 4.72492 4.48211 5.29392 4.14211 5.65292C3.97211 5.83292 3.82711 5.95792 3.72211 6.04192C3.68134 6.07455 3.63931 6.10558 3.59611 6.13492L3.59011 6.13892L3.57611 6.14892L3.56411 6.15692L3.55611 6.16192L3.49111 6.19892ZM16.9611 18.8229C16.6961 19.4389 15.8971 20.2279 14.7811 19.9379C14.0811 19.7569 13.5771 19.3379 13.2921 18.7609C13.0441 18.2579 13.0021 17.7109 12.9921 17.2939C12.9929 16.8854 13.0392 16.4782 13.1301 16.0799H12.9361C11.3781 16.0799 10.1141 14.6479 10.6041 13.0899L11.7541 9.43492C12.2191 7.95292 13.8541 7.18492 15.3311 7.61892L19.8431 8.94192C20.5431 9.14692 21.1271 9.64992 21.4001 10.3289L21.8381 11.4169C22.2771 12.5069 21.7981 13.7029 20.7831 14.2619L19.2411 15.1119L19.2111 15.1349C19.1601 15.1749 19.0681 15.2529 18.9481 15.3799C18.7091 15.6309 18.3521 16.0799 17.9861 16.8079C17.8081 17.1609 17.6591 17.4379 17.5271 17.6819V17.6839C17.3141 18.0789 17.1491 18.3829 16.9611 18.8229ZM18.5111 13.8019L20.0591 12.9489C20.4541 12.7319 20.5831 12.3189 20.4461 11.9789L20.0091 10.8889C19.9552 10.7659 19.8743 10.6565 19.7726 10.5688C19.6708 10.481 19.5507 10.4172 19.4211 10.3819L14.9091 9.05892C14.1391 8.83292 13.3821 9.25692 13.1841 9.88592L12.0341 13.5399C11.8911 13.9959 12.2441 14.5809 12.9361 14.5809H14.1031C14.2207 14.5809 14.3366 14.6086 14.4415 14.6617C14.5464 14.7147 14.6374 14.7917 14.7071 14.8864C14.7768 14.9811 14.8232 15.0909 14.8427 15.2068C14.8621 15.3228 14.8541 15.4417 14.8191 15.5539C14.7671 15.7209 14.7141 15.9059 14.6661 16.0959C14.5601 16.5189 14.4861 16.9459 14.4921 17.2639C14.5001 17.6299 14.5421 17.9029 14.6371 18.0979C14.7221 18.2679 14.8641 18.4109 15.1581 18.4879C15.1977 18.4992 15.2392 18.5017 15.2798 18.4951C15.3205 18.4886 15.3591 18.4731 15.3931 18.4499C15.4767 18.3973 15.5428 18.3211 15.5831 18.2309C15.7991 17.7289 15.9901 17.3739 16.2031 16.9809L16.2061 16.9739C16.3381 16.7289 16.4781 16.4679 16.6461 16.1349C17.0781 15.2759 17.5201 14.7069 17.8601 14.3479C18.0301 14.1679 18.1751 14.0419 18.2801 13.9589C18.3328 13.9183 18.3748 13.8873 18.4061 13.8659L18.4121 13.8619L18.4261 13.8519L18.4381 13.8439L18.4461 13.8389L18.5111 13.8019Z" fill="white"/>
</svg>
