<svg width="21" height="20" viewBox="0 0 21 20" fill="none" xmlns="http://www.w3.org/2000/svg">
<path d="M4.75 19C4.55998 18.9999 4.37706 18.9278 4.23821 18.798C4.09936 18.6683 4.01493 18.4907 4.00197 18.3011C3.98902 18.1115 4.04852 17.9241 4.16843 17.7767C4.28835 17.6293 4.45975 17.5329 4.648 17.507L4.75 17.5H6.499V15.002H2.25C1.67987 15.0021 1.13098 14.7857 0.714247 14.3966C0.297514 14.0076 0.0440221 13.4748 0.00500013 12.906L1.69987e-08 12.752V2.25C-7.00219e-05 1.67987 0.216295 1.13098 0.605369 0.714247C0.994443 0.297514 1.52721 0.0440221 2.096 0.00500013L2.25 1.69987e-08H17.749C18.3191 -7.00219e-05 18.868 0.216295 19.2848 0.605369C19.7015 0.994443 19.955 1.52721 19.994 2.096L19.999 2.25V12.752C19.999 13.124 19.909 13.475 19.749 13.784L18.499 12.398V2.25C18.499 2.06876 18.4334 1.89366 18.3142 1.75707C18.1951 1.62048 18.0306 1.53165 17.851 1.507L17.749 1.5H2.25C2.06876 1.50001 1.89366 1.56564 1.75707 1.68477C1.62048 1.80389 1.53165 1.96845 1.507 2.148L1.5 2.25V12.752C1.5 13.132 1.782 13.446 2.148 13.495L2.25 13.502H12.003V15.002H7.997L7.998 17.5H12V19H4.75ZM13.486 9.05C13.6276 8.99563 13.7823 8.98545 13.9297 9.0208C14.0772 9.05615 14.2105 9.13536 14.312 9.248L20.677 16.306C20.7845 16.4253 20.8509 16.576 20.8664 16.7358C20.8819 16.8957 20.8457 17.0563 20.763 17.194C20.6804 17.3317 20.5557 17.4393 20.4074 17.5009C20.2591 17.5624 20.0949 17.5747 19.939 17.536L16.402 16.658L14.372 19.672C14.2822 19.8053 14.1519 19.9062 14.0004 19.9599C13.8489 20.0136 13.6842 20.0171 13.5305 19.9701C13.3768 19.923 13.2423 19.8279 13.1467 19.6986C13.0512 19.5693 12.9998 19.4127 13 19.252L13.005 9.75C13.0049 9.59849 13.0508 9.45052 13.1365 9.32557C13.2221 9.20062 13.3437 9.10454 13.485 9.05" fill="#121212"/>
</svg>
