<svg width="20" height="20" viewBox="0 0 20 20" fill="none" xmlns="http://www.w3.org/2000/svg">
<path d="M11 13.25C11 13.0511 11.079 12.8603 11.2197 12.7197C11.3603 12.579 11.5511 12.5 11.75 12.5H15.25C15.4489 12.5 15.6397 12.579 15.7803 12.7197C15.921 12.8603 16 13.0511 16 13.25C16 13.4489 15.921 13.6397 15.7803 13.7803C15.6397 13.921 15.4489 14 15.25 14H11.75C11.5511 14 11.3603 13.921 11.2197 13.7803C11.079 13.6397 11 13.4489 11 13.25ZM7.5 4.75C7.5 4.55109 7.42098 4.36032 7.28033 4.21967C7.13968 4.07902 6.94891 4 6.75 4C6.55109 4 6.36032 4.07902 6.21967 4.21967C6.07902 4.36032 6 4.55109 6 4.75V6H4.75C4.55109 6 4.36032 6.07902 4.21967 6.21967C4.07902 6.36032 4 6.55109 4 6.75C4 6.94891 4.07902 7.13968 4.21967 7.28033C4.36032 7.42098 4.55109 7.5 4.75 7.5H6V8.75C6 8.94891 6.07902 9.13968 6.21967 9.28033C6.36032 9.42098 6.55109 9.5 6.75 9.5C6.94891 9.5 7.13968 9.42098 7.28033 9.28033C7.42098 9.13968 7.5 8.94891 7.5 8.75V7.5H8.75C8.94891 7.5 9.13968 7.42098 9.28033 7.28033C9.42098 7.13968 9.5 6.94891 9.5 6.75C9.5 6.55109 9.42098 6.36032 9.28033 6.21967C9.13968 6.07902 8.94891 6 8.75 6H7.5V4.75ZM10 20C4.477 20 0 15.523 0 10C0 4.477 4.477 0 10 0C15.523 0 20 4.477 20 10C20 15.523 15.523 20 10 20ZM10 18.5C11.6173 18.5 13.201 18.0386 14.5652 17.17C15.9294 16.3014 17.0175 15.0616 17.7018 13.5962C18.386 12.1308 18.638 10.5006 18.4281 8.89703C18.2183 7.29342 17.5553 5.78297 16.517 4.543L4.543 16.517C6.07156 17.8003 8.00418 18.5026 10 18.5ZM3.483 15.457L15.457 3.483C13.8281 2.11899 11.7474 1.41446 9.62485 1.50821C7.50232 1.60197 5.49185 2.48721 3.98953 3.98953C2.48721 5.49185 1.60197 7.50232 1.50821 9.62485C1.41446 11.7474 2.11899 13.8281 3.483 15.457Z" fill="white"/>
</svg>
