<svg width="18" height="22" viewBox="0 0 18 22" fill="none" xmlns="http://www.w3.org/2000/svg">
<path d="M13.4204 4.2C13.4204 1.758 12.2804 0 10.4134 0C9.38738 0 9.03538 0.602 8.66738 2C8.59238 2.29 8.55538 2.43 8.51638 2.569C8.41504 2.92833 8.23938 3.53833 7.98938 4.399C7.98201 4.42179 7.97193 4.44361 7.95938 4.464L5.09438 8.95C4.41541 10.0105 3.41498 10.8259 2.23938 11.277L1.76638 11.458C1.16242 11.6893 0.659322 12.1261 0.345486 12.6916C0.0316496 13.2571 -0.072841 13.9151 0.0503763 14.55L0.454376 16.636C0.572601 17.2458 0.863091 17.8089 1.29145 18.2587C1.71981 18.7085 2.26809 19.0262 2.87138 19.174L10.4994 21.044C11.7155 21.3419 13 21.1477 14.0736 20.5035C15.1472 19.8593 15.923 18.8172 16.2324 17.604L17.6474 12.054C17.7697 11.5741 17.7808 11.0726 17.6797 10.5878C17.5787 10.103 17.3682 9.64764 17.0642 9.25661C16.7603 8.86558 16.3711 8.54918 15.9262 8.33156C15.4813 8.11395 14.9926 8.00088 14.4974 8.001H12.6754C13.1714 6.368 13.4204 5.109 13.4204 4.2ZM1.52038 14.264C1.46448 13.9755 1.51204 13.6765 1.65468 13.4195C1.79733 13.1626 2.02594 12.9641 2.30038 12.859L2.77438 12.678C4.24948 12.112 5.50471 11.0888 6.35638 9.758L9.22338 5.272C9.31404 5.13067 9.38238 4.97933 9.42838 4.818C9.68038 3.95267 9.85704 3.33833 9.95838 2.975C10.0138 2.77799 10.0668 2.58031 10.1174 2.382C10.3074 1.66 10.4004 1.501 10.4124 1.501C11.2804 1.501 11.9194 2.485 11.9194 4.2C11.9194 5.084 11.5934 6.535 10.9354 8.515C10.898 8.62763 10.888 8.74751 10.906 8.8648C10.924 8.98208 10.9695 9.09342 11.0389 9.18967C11.1083 9.28591 11.1996 9.36432 11.3052 9.41844C11.4108 9.47256 11.5277 9.50086 11.6464 9.501H14.4964C14.643 9.501 14.787 9.51933 14.9284 9.556C15.1511 9.61271 15.3605 9.71275 15.5446 9.85039C15.7286 9.98803 15.8838 10.1606 16.0012 10.3582C16.1185 10.5558 16.1958 10.7746 16.2286 11.0021C16.2615 11.2296 16.2491 11.4613 16.1924 11.684L14.7774 17.233C14.5656 18.0631 14.0346 18.7759 13.3 19.2166C12.5653 19.6572 11.6864 19.79 10.8544 19.586L3.22638 17.716C2.9017 17.6364 2.60662 17.4654 2.37606 17.2233C2.1455 16.9812 1.98911 16.6782 1.92538 16.35L1.52038 14.264Z" fill="white"/>
</svg>
